<svg width="350" height="350" viewBox="0 0 350 350" fill="none" xmlns="http://www.w3.org/2000/svg">
<rect width="350" height="350" fill="white" fill-opacity="0.01"/>
<g filter="url(#filter0_dd)">
<path d="M184.668 255H153.945V145C153.945 142.852 153.516 140.846 152.656 138.984C151.868 137.122 150.758 135.511 149.326 134.15C147.965 132.718 146.354 131.608 144.492 130.82C142.63 130.033 140.625 129.639 138.477 129.639C136.328 129.639 134.323 130.033 132.461 130.82C130.599 131.608 128.952 132.718 127.52 134.15C126.159 135.511 125.085 137.122 124.297 138.984C123.509 140.846 123.115 142.852 123.115 145V255H92.2852V145C92.2852 142.852 91.8913 140.846 91.1035 138.984C90.3158 137.122 89.2057 135.511 87.7734 134.15C86.4128 132.718 84.8014 131.608 82.9395 130.82C81.0775 130.033 79.0723 129.639 76.9238 129.639C74.7754 129.639 72.7702 130.033 70.9082 130.82C69.0462 131.608 67.3991 132.718 65.9668 134.15C64.6061 135.511 63.5319 137.122 62.7441 138.984C61.9564 140.846 61.5625 142.852 61.5625 145V255H30.7324V145C30.7324 138.626 31.9141 132.646 34.2773 127.061C36.7122 121.403 40.0065 116.497 44.1602 112.344C48.3854 108.118 53.291 104.824 58.877 102.461C64.5345 100.026 70.5501 98.8086 76.9238 98.8086C82.653 98.8086 88.1673 99.847 93.4668 101.924C98.7663 103.929 103.529 106.865 107.754 110.732C111.979 106.865 116.706 103.929 121.934 101.924C127.233 99.847 132.747 98.8086 138.477 98.8086C144.85 98.8086 150.83 100.026 156.416 102.461C162.074 104.824 166.979 108.118 171.133 112.344C175.358 116.497 178.652 121.403 181.016 127.061C183.451 132.646 184.668 138.626 184.668 145V255Z" fill="#E59117"/>
<path d="M203.252 147.148C203.252 140.775 204.469 134.795 206.904 129.209C209.339 123.623 212.633 118.753 216.787 114.6C221.012 110.374 225.918 107.044 231.504 104.609C237.09 102.174 243.07 100.957 249.443 100.957H320.127V131.787H249.443C247.295 131.787 245.29 132.181 243.428 132.969C241.566 133.757 239.919 134.867 238.486 136.299C237.126 137.66 236.051 139.271 235.264 141.133C234.476 142.995 234.082 145 234.082 147.148C234.082 149.297 234.476 151.338 235.264 153.271C236.051 155.133 237.126 156.781 238.486 158.213C239.919 159.574 241.566 160.648 243.428 161.436C245.29 162.223 247.295 162.617 249.443 162.617H280.273C286.647 162.617 292.627 163.835 298.213 166.27C303.87 168.633 308.776 171.927 312.93 176.152C317.155 180.306 320.449 185.212 322.812 190.869C325.247 196.455 326.465 202.435 326.465 208.809C326.465 215.182 325.247 221.162 322.812 226.748C320.449 232.334 317.155 237.24 312.93 241.465C308.776 245.618 303.87 248.913 298.213 251.348C292.627 253.783 286.647 255 280.273 255H211.846V224.17H280.273C282.422 224.17 284.427 223.776 286.289 222.988C288.151 222.201 289.762 221.126 291.123 219.766C292.555 218.333 293.665 216.686 294.453 214.824C295.241 212.962 295.635 210.957 295.635 208.809C295.635 206.66 295.241 204.655 294.453 202.793C293.665 200.931 292.555 199.32 291.123 197.959C289.762 196.527 288.151 195.417 286.289 194.629C284.427 193.841 282.422 193.447 280.273 193.447H249.443C243.07 193.447 237.09 192.23 231.504 189.795C225.918 187.36 221.012 184.066 216.787 179.912C212.633 175.687 209.339 170.781 206.904 165.195C204.469 159.538 203.252 153.522 203.252 147.148Z" fill="#075C98"/>
</g>
<defs>
<filter id="filter0_dd" x="26.7324" y="98.8086" width="303.732" height="164.191" filterUnits="userSpaceOnUse" color-interpolation-filters="sRGB">
<feFlood flood-opacity="0" result="BackgroundImageFix"/>
<feColorMatrix in="SourceAlpha" type="matrix" values="0 0 0 0 0 0 0 0 0 0 0 0 0 0 0 0 0 0 127 0"/>
<feOffset dy="4"/>
<feGaussianBlur stdDeviation="2"/>
<feColorMatrix type="matrix" values="0 0 0 0 0 0 0 0 0 0 0 0 0 0 0 0 0 0 0.25 0"/>
<feBlend mode="normal" in2="BackgroundImageFix" result="effect1_dropShadow"/>
<feColorMatrix in="SourceAlpha" type="matrix" values="0 0 0 0 0 0 0 0 0 0 0 0 0 0 0 0 0 0 127 0"/>
<feOffset dy="4"/>
<feGaussianBlur stdDeviation="2"/>
<feColorMatrix type="matrix" values="0 0 0 0 0 0 0 0 0 0 0 0 0 0 0 0 0 0 0.25 0"/>
<feBlend mode="normal" in2="effect1_dropShadow" result="effect2_dropShadow"/>
<feBlend mode="normal" in="SourceGraphic" in2="effect2_dropShadow" result="shape"/>
</filter>
</defs>
</svg>
